<svg width="30" height="30" viewBox="0 0 30 30" fill="none" xmlns="http://www.w3.org/2000/svg">
<g clip-path="url(#clip0_456_4)">
<path d="M15.9372 10.3125C15.9372 10.0639 15.8384 9.8254 15.6626 9.64959C15.4868 9.47377 15.2483 9.375 14.9997 9.375C14.751 9.375 14.5126 9.47377 14.3368 9.64959C14.1609 9.8254 14.0622 10.0639 14.0622 10.3125V16.6163L11.3828 21.0787C11.2548 21.2921 11.2167 21.5475 11.277 21.7889C11.3373 22.0303 11.491 22.2379 11.7044 22.3659C11.9177 22.494 12.1732 22.532 12.4146 22.4717C12.656 22.4114 12.8635 22.2577 12.9916 22.0444L15.8041 17.3569C15.8912 17.2113 15.9372 17.0447 15.9372 16.875V10.3125Z" fill="#A8A8A8"/>
<path d="M12.1875 0C11.9389 0 11.7004 0.0987721 11.5246 0.274587C11.3488 0.450403 11.25 0.68886 11.25 0.9375C11.25 1.18614 11.3488 1.4246 11.5246 1.60041C11.7004 1.77623 11.9389 1.875 12.1875 1.875H13.125V3.88125C10.5718 4.25012 8.18382 5.36314 6.25946 7.08126C4.3351 8.79938 2.95965 11.0464 2.30492 13.5417C1.6502 16.037 1.74522 18.6699 2.57814 21.1115C3.41105 23.553 4.94491 25.6951 6.98812 27.27L5.85938 28.3987C5.68334 28.5745 5.58434 28.8131 5.58417 29.0618C5.58399 29.3106 5.68265 29.5493 5.85844 29.7253C6.03423 29.9014 6.27275 30.0003 6.52152 30.0005C6.7703 30.0007 7.00896 29.902 7.185 29.7263L8.58375 28.3275C10.5432 29.4273 12.753 30.0034 15 30C17.247 30.0034 19.4568 29.4273 21.4162 28.3275L22.815 29.7263C22.991 29.902 23.2297 30.0007 23.4785 30.0005C23.7273 30.0003 23.9658 29.9014 24.1416 29.7253C24.3174 29.5493 24.416 29.3106 24.4158 29.0618C24.4157 28.8131 24.3167 28.5745 24.1406 28.3987L23.0138 27.27C25.057 25.695 26.5908 23.5528 27.4237 21.111C28.2565 18.6693 28.3513 16.0363 27.6964 13.541C27.0415 11.0457 25.6658 8.79863 23.7412 7.08063C21.8166 5.36263 19.4284 4.24983 16.875 3.88125V1.875H17.8125C18.0611 1.875 18.2996 1.77623 18.4754 1.60041C18.6512 1.4246 18.75 1.18614 18.75 0.9375C18.75 0.68886 18.6512 0.450403 18.4754 0.274587C18.2996 0.0987721 18.0611 0 17.8125 0L12.1875 0ZM14.1338 5.65875C14.7104 5.61422 15.2896 5.61422 15.8662 5.65875C18.7663 5.88271 21.4668 7.22117 23.4013 9.39328C25.3357 11.5654 26.3537 14.4023 26.2416 17.3088C26.1296 20.2153 24.8962 22.9654 22.8002 24.9821C20.7042 26.9988 17.9086 28.1254 15 28.1254C12.0914 28.1254 9.29577 26.9988 7.1998 24.9821C5.10384 22.9654 3.87042 20.2153 3.75835 17.3088C3.64629 14.4023 4.66428 11.5654 6.59874 9.39328C8.53319 7.22117 11.2337 5.88271 14.1338 5.65875ZM4.74914e-09 6.5625C4.74914e-09 7.97438 0.624375 9.24188 1.6125 10.1006C3.06006 7.25092 5.37592 4.93506 8.22563 3.4875C7.59915 2.76662 6.76742 2.2543 5.84176 2.01913C4.91611 1.78395 3.9407 1.83713 3.04611 2.17156C2.15151 2.50599 1.38041 3.1057 0.836032 3.89043C0.291649 4.67515 -4.29756e-05 5.60744 4.74914e-09 6.5625ZM25.3125 1.875C23.9006 1.875 22.6331 2.49938 21.7744 3.4875C24.6241 4.93506 26.9399 7.25092 28.3875 10.1006C29.1084 9.47415 29.6207 8.64242 29.8559 7.71676C30.0911 6.79111 30.0379 5.8157 29.7034 4.92111C29.369 4.02651 28.7693 3.25541 27.9846 2.71103C27.1999 2.16665 26.2676 1.87496 25.3125 1.875Z" fill="#A8A8A8"/>
</g>
<defs>
<clipPath id="clip0_456_4">
<rect width="30" height="30" fill="white"/>
</clipPath>
</defs>
</svg>
