<svg width="182" height="187" viewBox="0 0 182 187" fill="none" xmlns="http://www.w3.org/2000/svg">
<g clip-path="url(#clip0_424_4)">
<path d="M126.377 139.876C128.212 140.846 130.585 140.741 132.221 139.292L132.28 139.35C138.537 133.801 144.86 128.327 151.248 122.929C153.27 121.258 152.92 118.581 151.319 116.349L149.858 114.362C145.825 108.927 141.992 103.773 141.992 93.4299V54.8611L142.004 50.9458C142.097 36.1611 142.167 22.6504 131.099 12.3186C121.597 3.20238 105.889 0 93.8511 0C70.3242 0 44.0624 8.76562 38.5225 37.8675C37.9732 40.953 40.1938 42.5893 42.2158 43.0451L66.2219 45.6163C68.4425 45.5111 70.0788 43.3256 70.4995 41.0933C72.5565 31.0771 80.9715 26.2384 90.4033 26.2384C95.4874 26.2384 101.261 28.1084 104.288 32.6666C107.374 37.2247 107.327 43.3022 107.292 48.7486V53.7976C104.954 54.0547 102.535 54.3079 100.034 54.5573C87.0256 55.8896 72.0189 57.4324 60.7638 62.3879C45.2662 69.0731 34.3618 82.7475 34.3618 102.827C34.3618 128.539 50.5723 141.372 71.3878 141.372C88.9891 141.372 98.5963 137.235 112.165 123.373L114.117 126.248C117.32 130.982 119.447 134.137 126.354 139.876H126.377ZM70.4762 98.5373C70.4762 77.4531 89.3748 73.6313 107.257 73.6313V80.2931C107.268 89.3626 107.28 97.053 102.628 105.223C98.7015 112.177 92.4603 116.454 85.5063 116.454C76.016 116.454 70.4762 109.22 70.4762 98.5373ZM5.08459 142.284C35.811 161.019 83.3675 190.015 159.161 153.936C162.433 152.58 164.712 154.848 161.487 158.973C158.226 163.158 132.21 187 88.4749 187C44.787 187 11.314 157.15 1.09915 144.761C-1.70585 141.547 1.5199 140.086 3.42496 141.267L5.08459 142.284Z" fill="white"/>
<path d="M161.615 139.584C168.241 138.766 178.772 139.268 180.841 141.968C182.418 144.025 180.794 153.258 178.117 159.885C175.429 166.465 171.432 171.117 169.212 172.916C166.991 174.716 165.32 174.015 166.523 171.315C167.751 168.627 174.518 151.879 171.841 148.373C169.352 145.124 158.085 146.304 152.849 146.853L151.797 146.959C150.691 147.06 149.783 147.153 149.074 147.239C146.818 147.484 146.211 147.555 145.872 146.865C145.007 144.422 154.976 140.367 161.615 139.584Z" fill="white"/>
</g>
<defs>
<clipPath id="clip0_424_4">
<rect width="182" height="187" fill="white"/>
</clipPath>
</defs>
</svg>
