<svg width="23" height="30" viewBox="0 0 23 30" fill="none" xmlns="http://www.w3.org/2000/svg">
<path d="M14.2821 1.56L11.05 0L7.81788 1.56L4.21976 2.06917L2.58918 5.1025L0 7.48583L0.592587 10.8333L0 14.1808L2.58918 16.5642L4.21976 19.5975L7.81788 20.1067L11.05 21.6667L14.2821 20.1067L17.8802 19.5975L19.5108 16.5642L22.1 14.1808L21.5074 10.8333L22.1 7.48583L19.5108 5.1025L17.8802 2.06917L14.2821 1.56ZM16.5982 3.71403L17.9228 6.17861L20.0259 8.11417L19.5457 10.8333L20.0259 13.5525L17.9228 15.4881L16.5982 17.9526L13.674 18.3661L11.05 19.6336L8.42596 18.3661L5.50176 17.9526L4.17716 15.4881L2.07405 13.5525L2.55626 10.8333L2.07212 8.11417L4.17716 6.17861L5.50176 3.71403L8.42596 3.30056L11.05 2.03306L13.676 3.30056L16.5982 3.71403Z" fill="#A8A8A8"/>
<path d="M3.40039 21.6667V30L11.0504 28.0187L18.7004 30V21.6667L14.841 22.2729L11.0504 24.3057L7.25982 22.2729L3.40039 21.6667Z" fill="#A8A8A8"/>
</svg>
