<svg width="30" height="30" viewBox="0 0 30 30" fill="none" xmlns="http://www.w3.org/2000/svg">
<path d="M0 8.42106C0 7.44394 0.374294 6.50685 1.04054 5.81593C1.70679 5.125 2.61042 4.73685 3.55263 4.73685H24.8684C25.8106 4.73685 26.7143 5.125 27.3805 5.81593C28.0468 6.50685 28.4211 7.44394 28.4211 8.42106V17.6316H0V8.42106ZM20.4276 10.2632C20.1921 10.2632 19.9662 10.3602 19.7996 10.5329C19.633 10.7057 19.5395 10.9399 19.5395 11.1842V13.0263C19.5395 13.2706 19.633 13.5049 19.7996 13.6776C19.9662 13.8503 20.1921 13.9474 20.4276 13.9474H23.9803C24.2158 13.9474 24.4417 13.8503 24.6083 13.6776C24.7748 13.5049 24.8684 13.2706 24.8684 13.0263V11.1842C24.8684 10.9399 24.7748 10.7057 24.6083 10.5329C24.4417 10.3602 24.2158 10.2632 23.9803 10.2632H20.4276ZM0 21.3158V23.1579C0 24.135 0.374294 25.0721 1.04054 25.763C1.70679 26.454 2.61042 26.8421 3.55263 26.8421H24.8684C25.8106 26.8421 26.7143 26.454 27.3805 25.763C28.0468 25.0721 28.4211 24.135 28.4211 23.1579V21.3158H0Z" fill="#A8A8A8"/>
</svg>
