<svg width="18" height="19" viewBox="0 0 18 19" fill="none" xmlns="http://www.w3.org/2000/svg">
<path d="M5.217 18.3385C4.80833 18.3385 4.46358 18.1987 4.18275 17.919C3.90208 17.6392 3.76175 17.2949 3.76175 16.8863C3.76175 16.4776 3.90158 16.1328 4.18125 15.852C4.46092 15.5712 4.80508 15.4307 5.21375 15.4307C5.62242 15.4307 5.96717 15.5707 6.248 15.8505C6.52883 16.1302 6.66925 16.4743 6.66925 16.883C6.66925 17.2917 6.52942 17.6364 6.24975 17.9173C5.96992 18.1981 5.62567 18.3385 5.217 18.3385ZM14.4632 18.3385C14.0546 18.3385 13.7098 18.1987 13.429 17.919C13.1482 17.6392 13.0078 17.2949 13.0078 16.8863C13.0078 16.4776 13.1477 16.1328 13.4275 15.852C13.7072 15.5712 14.0513 15.4307 14.46 15.4307C14.8687 15.4307 15.2134 15.5707 15.4942 15.8505C15.7751 16.1302 15.9155 16.4743 15.9155 16.883C15.9155 17.2917 15.7756 17.6364 15.4957 17.9173C15.2161 18.1981 14.8719 18.3385 14.4632 18.3385ZM3.75775 2.8925L6.427 8.50775H12.9847C13.1001 8.50775 13.2027 8.47892 13.2925 8.42125C13.3822 8.36358 13.4591 8.28342 13.5233 8.18075L16.1385 3.43075C16.2155 3.28975 16.2219 3.16475 16.1578 3.05575C16.0938 2.94692 15.9847 2.8925 15.8307 2.8925H3.75775ZM3.30225 1.96925H16.1165C16.5447 1.96925 16.8658 2.14417 17.08 2.494C17.294 2.844 17.3062 3.20117 17.1165 3.5655L14.3203 8.6655C14.1856 8.90067 14.0027 9.087 13.7715 9.2245C13.5402 9.362 13.292 9.43075 13.027 9.43075H5.977L4.74625 11.6925C4.64375 11.8463 4.64058 12.013 4.73675 12.1925C4.83275 12.3718 4.97692 12.4615 5.16925 12.4615H15.9155V13.3848H5.218C4.6465 13.3848 4.221 13.1481 3.9415 12.6748C3.662 12.2016 3.65458 11.7242 3.91925 11.2425L5.42325 8.58025L1.77875 0.92325H0V0H2.3655L3.30225 1.96925Z" fill="#E8EAED"/>
</svg>
