<svg width="188" height="187" viewBox="0 0 188 187" fill="none" xmlns="http://www.w3.org/2000/svg">
<g clip-path="url(#clip0_424_7)">
<mask id="mask0_424_7" style="mask-type:luminance" maskUnits="userSpaceOnUse" x="0" y="0" width="188" height="187">
<path d="M188 0H0V187H188V0Z" fill="white"/>
</mask>
<g mask="url(#mask0_424_7)">
<path d="M0 0H188V187H0V0Z" fill="white"/>
<path d="M136.366 103.727V113.933C136.341 115.208 135.816 116.423 134.905 117.316C133.994 118.209 132.768 118.709 131.492 118.709C130.216 118.709 128.99 118.209 128.079 117.316C127.168 116.423 126.643 115.208 126.618 113.933V63.7688H117.166V122.36H145.828V103.71H136.375L136.366 103.727ZM65.3546 113.856C65.3546 116.586 63.2039 118.888 60.4967 118.888C59.1903 118.871 57.9434 118.339 57.0278 117.407C56.1122 116.475 55.6022 115.22 55.6087 113.914V103.71H46.1523V112.165C46.1523 116.411 49.8804 123.239 60.4629 123.239C71.0454 123.239 74.7734 118.004 74.7734 112.165V63.7632H65.3546V113.856ZM100.847 63.7632H81.9419V122.36H100.847C107.914 122.36 110.302 117.683 110.302 114.683V97.1534C110.302 94.6508 107.796 91.3967 104.077 91.3967C107.805 91.3967 110.302 86.2225 110.302 83.3179V73.3282C110.302 66.8482 104.483 63.7632 100.847 63.7632ZM97.1285 117.599H91.3945V93.9594H97.1285C100.857 93.9594 100.857 96.6649 100.857 105.85C100.857 115.036 100.847 117.599 97.1285 117.599ZM96.5476 89.02L91.3945 88.9956V69.317H96.5476C100.012 69.317 100.857 70.0422 100.857 79.2277C100.857 88.4132 100.005 89.02 96.5476 89.02ZM50.8993 97.3394C52.0001 97.3597 53.0822 97.0533 54.0087 96.4589C54.9353 95.8646 55.6647 95.009 56.1046 94.0004C56.5446 92.9918 56.6754 91.8754 56.4806 90.7925C56.2857 89.7096 55.7739 88.7087 55.0098 87.9165C54.2457 87.1243 53.2638 86.5763 52.1881 86.3418C51.1124 86.1074 49.9913 86.1969 48.9665 86.5992C47.9418 87.0015 47.0594 87.6984 46.431 88.6019C45.8025 89.5053 45.4563 90.5747 45.436 91.6748V91.7594C45.4276 92.4844 45.5623 93.204 45.8324 93.8769C46.1025 94.5499 46.5027 95.1631 47.0101 95.6813C47.5175 96.1996 48.1222 96.6128 48.7895 96.8973C49.4569 97.1818 50.1738 97.3321 50.8993 97.3394ZM59.6282 63.7632H42.1724L50.8993 84.0243L59.6282 63.7632Z" fill="#111111"/>
</g>
</g>
<defs>
<clipPath id="clip0_424_7">
<rect width="188" height="187" fill="white"/>
</clipPath>
</defs>
</svg>
