<svg xmlns="http://www.w3.org/2000/svg" height="24px" viewBox="0 -960 960 960" width="24px" fill="#b17736"><path d="M480-272.62q105-85.19 159.04-172.61 54.04-87.42 54.04-157.22 0-92.13-60.04-151.38T480-813.08q-93 0-153.04 59.25-60.04 59.25-60.04 151.67 0 69.39 54.04 156.66T480-272.62Zm0 56.08q-128.92-98.81-192.92-198.71t-64-187.24q0-111.82 72.34-183.12 72.35-71.31 184.58-71.31 112.23 0 184.58 71.24 72.34 71.25 72.34 183.41 0 87.12-64 187.02T480-216.54Zm-.62-311.15q30.54 0 51.73-21.2 21.2-21.19 21.2-51.11 0-29.92-21.2-51.11-21.19-21.2-51.73-21.2-29.92 0-50.8 21.2-20.89 21.19-20.89 51.11 0 29.92 20.89 51.11 20.88 21.2 50.8 21.2Zm-256.3 424.61v-43.84h513.84v43.84H223.08ZM480-600Z"/></svg>