<svg width="53" height="45" viewBox="0 0 53 45" fill="none" xmlns="http://www.w3.org/2000/svg">
<mask id="mask0_6_86" style="mask-type:luminance" maskUnits="userSpaceOnUse" x="24" y="0" width="12" height="25">
<path d="M24.5753 0H35.5314V24.0701H24.5753V0Z" fill="white"/>
</mask>
<g mask="url(#mask0_6_86)">
<path d="M24.5753 0H35.5314V24.0657H24.5753V0Z" fill="white"/>
</g>
<mask id="mask1_6_86" style="mask-type:luminance" maskUnits="userSpaceOnUse" x="16" y="1" width="17" height="22">
<path d="M16.8929 1.30225H32.2419V22.8079H16.8929V1.30225Z" fill="white"/>
</mask>
<g mask="url(#mask1_6_86)">
<path d="M28.0192 12.1435C28.0145 12.1449 28.0089 12.1449 28.0042 12.1464C27.6876 12.2687 27.3622 12.3461 27.029 12.3778C27.0243 12.3778 27.0203 12.3793 27.0156 12.3793C26.9048 12.3888 26.7939 12.3947 26.6808 12.3947H17.7003C17.8784 11.579 18.6541 10.9644 19.5817 10.9644H25.7586C27.0354 10.9644 28.1435 10.1177 28.3944 8.95195L29.493 3.84082C29.6877 2.93149 30.4634 2.23733 31.4148 2.06563L30.093 9.68885C29.8975 10.8222 29.0917 11.7271 28.0192 12.1435ZM30.3296 21.8329C30.3478 21.8956 30.3225 21.9435 30.298 21.973C30.2054 22.0857 29.9726 22.0548 29.9244 21.9265L26.6499 13.1103H26.6808C26.7963 13.1103 26.9103 13.1044 27.0235 13.0963C27.0789 13.0918 27.1311 13.0845 27.1849 13.0793C27.2364 13.0734 27.2886 13.0683 27.3393 13.0594C27.4177 13.0484 27.4944 13.0344 27.5704 13.0189C27.5839 13.0174 27.5965 13.0152 27.61 13.0123C27.7026 12.9924 27.7944 12.9717 27.8846 12.9467L30.3296 21.8329ZM25.4325 15.6128L26.5715 15.0837L27.0456 16.3629L25.4325 15.6128ZM22.1035 16.3629L22.5776 15.0837L23.7166 15.6128L22.1035 16.3629ZM25.8378 13.1103L26.3182 14.4021L24.5745 15.2134L22.8309 14.4021L23.3113 13.1103H25.8378ZM19.2247 21.9251C19.1749 22.0548 18.9422 22.0857 18.8511 21.973C18.8266 21.9435 18.8013 21.8956 18.8195 21.8329L21.3396 13.1103H22.5L19.2247 21.9251ZM30.852 9.80233L32.2514 1.72444C32.2696 1.62128 32.2379 1.51516 32.1643 1.43558C32.0915 1.35599 31.9847 1.30957 31.8723 1.30957C30.3542 1.30957 29.0363 2.31544 28.7395 3.70081L27.6409 8.81194C27.4628 9.64464 26.6705 10.2496 25.7586 10.2496H19.5817C18.0992 10.2496 16.8929 11.3727 16.8929 12.7521C16.8929 12.9496 17.0655 13.1103 17.2768 13.1103H20.545L18.0786 21.6472C18.0018 21.9125 18.0604 22.1889 18.2401 22.4085C18.4277 22.6347 18.7126 22.7644 19.0237 22.7644C19.4432 22.7644 19.816 22.5212 19.9505 22.1601L21.7433 17.3312L24.5745 16.0122L27.4058 17.3312L29.1986 22.1601C29.3339 22.5212 29.7059 22.7644 30.1254 22.7644C30.4365 22.7644 30.7214 22.6347 30.909 22.4085C31.0887 22.1889 31.1472 21.9125 31.0721 21.6517L28.6041 12.6799C29.7716 12.1265 30.6296 11.0831 30.852 9.80233Z" fill="black"/>
</g>
<mask id="mask2_6_86" style="mask-type:luminance" maskUnits="userSpaceOnUse" x="16" y="1" width="9" height="22">
<path d="M16.8929 1.31689H24.4914V22.6811H16.8929V1.31689Z" fill="white"/>
</mask>
<g mask="url(#mask2_6_86)">
<path d="M27.9504 12.1581C27.9464 12.1596 27.9401 12.1596 27.9353 12.1611C27.6187 12.2841 27.2934 12.3608 26.9602 12.3932C26.9562 12.3932 26.9515 12.3946 26.9467 12.3946C26.8359 12.4042 26.7251 12.4101 26.6119 12.4101H17.6314C17.8095 11.5944 18.5852 10.9798 19.5129 10.9798H25.6898C26.9665 10.9798 28.0754 10.1331 28.3255 8.96659L29.4241 3.85546C29.6189 2.94613 30.3945 2.25197 31.3459 2.08027L30.0241 9.70423C29.8286 10.8368 29.0236 11.7418 27.9504 12.1581ZM30.2608 21.8476C30.279 21.911 30.2536 21.9581 30.2299 21.9876C30.1365 22.1011 29.9038 22.0701 29.8563 21.9412L26.581 13.1249H26.6119C26.7275 13.1249 26.8414 13.119 26.9546 13.1109C27.01 13.1065 27.0623 13.0999 27.1161 13.094C27.1675 13.0888 27.2198 13.0829 27.2712 13.0748C27.3488 13.0638 27.4256 13.0498 27.5016 13.0343C27.5158 13.0328 27.5277 13.0299 27.5411 13.0269C27.6337 13.0077 27.7256 12.9864 27.8158 12.9613L30.2608 21.8476ZM25.3637 15.6282L26.5027 15.0983L26.9768 16.3783L25.3637 15.6282ZM22.0346 16.3783L22.5087 15.0983L23.6477 15.6282L22.0346 16.3783ZM25.769 13.1249L26.2494 14.4167L24.5057 15.2288L22.7628 14.4167L23.2425 13.1249H25.769ZM19.1559 21.9404C19.106 22.0701 18.8733 22.1011 18.7823 21.9876C18.7578 21.9581 18.7324 21.911 18.7506 21.8476L21.2708 13.1249H22.4312L19.1559 21.9404ZM30.7832 9.81698L32.1826 1.73983C32.2008 1.63592 32.1691 1.52981 32.0963 1.45022C32.0227 1.37064 31.9158 1.32495 31.8034 1.32495C30.2853 1.32495 28.9674 2.33082 28.6706 3.71619L27.5728 8.82732C27.3939 9.65928 26.6016 10.2643 25.6898 10.2643H19.5129C18.0304 10.2643 16.8241 11.3873 16.8241 12.7675C16.8241 12.9643 16.9966 13.1249 17.208 13.1249H20.4761L18.0098 21.6619C17.933 21.9272 17.9916 22.2043 18.1712 22.4231C18.3588 22.6493 18.6438 22.7798 18.9548 22.7798C19.3751 22.7798 19.7471 22.5366 19.8817 22.1748L21.6745 17.3459L24.5057 16.0276L27.3369 17.3459L29.1297 22.1748C29.2651 22.5366 29.6371 22.7798 30.0574 22.7798C30.3676 22.7798 30.6526 22.6493 30.8402 22.4231C31.0198 22.2043 31.0784 21.9272 31.004 21.6663L28.5353 12.6946C29.7028 12.1419 30.5608 11.0984 30.7832 9.81698Z" fill="white"/>
</g>
<path d="M2.55499 33.0023C2.85656 33.0988 3.10114 33.2639 3.28952 33.4975C3.4771 33.7318 3.57129 34.003 3.57129 34.311C3.57129 34.608 3.48739 34.8769 3.32118 35.1186C3.15654 35.3603 2.92542 35.549 2.62781 35.6846C2.33021 35.8202 1.99144 35.888 1.61151 35.888H0V30.4998H1.5292C1.89804 30.4998 2.21781 30.5609 2.48851 30.6825C2.75841 30.8026 2.965 30.9706 3.10905 31.1865C3.25231 31.401 3.32434 31.6464 3.32434 31.9234C3.32434 32.1497 3.25311 32.3612 3.11222 32.5572C2.97291 32.7517 2.78691 32.9006 2.55499 33.0023ZM0.661702 31.0775V32.7724H1.5292C1.87113 32.7724 2.14103 32.6928 2.3397 32.5336C2.53758 32.3744 2.63731 32.171 2.63731 31.9234C2.63731 31.6781 2.53758 31.4754 2.3397 31.3162C2.14103 31.1571 1.87113 31.0775 1.5292 31.0775H0.661702ZM1.61151 35.3102C1.99144 35.3102 2.29854 35.2144 2.53283 35.0214C2.76712 34.829 2.88426 34.5925 2.88426 34.311C2.88426 34.028 2.76712 33.7907 2.53283 33.5977C2.29854 33.4053 1.99144 33.3088 1.61151 33.3088H0.661702V35.3102H1.61151Z" fill="white"/>
<path d="M5.43099 33.3855V35.3102H7.91V35.888H4.76929V30.4998H7.82768V31.0775H5.43099V32.8107H7.74536V33.3855H5.43099Z" fill="white"/>
<path d="M12.6237 35.888L10.5721 33.58H9.89461V35.888H9.23291V30.4998H10.9267C11.2956 30.4998 11.6217 30.5668 11.905 30.7002C12.19 30.8343 12.41 31.0178 12.5667 31.2514C12.7251 31.4857 12.8042 31.7488 12.8042 32.0413C12.8042 32.4245 12.6728 32.7539 12.4116 33.0288C12.1496 33.3044 11.7982 33.4768 11.3573 33.5476L13.4501 35.888H12.6237ZM9.89461 31.0775V33.0023H10.9267C11.2916 33.0023 11.5805 32.9153 11.7942 32.7399C12.0095 32.5653 12.1172 32.3324 12.1172 32.0413C12.1172 31.7488 12.0095 31.5152 11.7942 31.3398C11.5805 31.1652 11.2916 31.0775 10.9267 31.0775H9.89461Z" fill="white"/>
<path d="M16.8869 35.9646C16.3527 35.9646 15.8595 35.8423 15.4084 35.5961C14.9564 35.3485 14.5995 35.0125 14.3383 34.588C14.0763 34.1621 13.9457 33.6971 13.9457 33.1938C13.9457 32.6913 14.0763 32.227 14.3383 31.8026C14.5995 31.3766 14.9564 31.0406 15.4084 30.7945C15.8595 30.5469 16.3527 30.4231 16.8869 30.4231C17.4988 30.4231 18.0362 30.5786 18.4984 30.8888C18.9623 31.1998 19.3097 31.622 19.5401 32.1563H18.8372C18.6449 31.8026 18.3789 31.5218 18.0394 31.3133C17.7014 31.1055 17.3175 31.0008 16.8869 31.0008C16.4793 31.0008 16.1018 31.0981 15.7535 31.2926C15.4068 31.4872 15.1329 31.7517 14.9303 32.0855C14.7293 32.4201 14.6295 32.7893 14.6295 33.1938C14.6295 33.5991 14.7293 33.9683 14.9303 34.3021C15.1329 34.6367 15.4068 34.9005 15.7535 35.095C16.1018 35.2896 16.4793 35.3868 16.8869 35.3868C17.3341 35.3868 17.7275 35.2837 18.0679 35.0774C18.4098 34.8695 18.6773 34.588 18.872 34.2343H19.5749C19.3422 34.7671 18.9931 35.1886 18.5269 35.4989C18.0623 35.8098 17.5154 35.9646 16.8869 35.9646Z" fill="white"/>
<path d="M23.3423 35.9646C22.7977 35.9646 22.2959 35.8423 21.8384 35.5961C21.3801 35.3485 21.0192 35.0125 20.7556 34.588C20.4913 34.1621 20.3599 33.6971 20.3599 33.1938C20.3599 32.6913 20.4913 32.227 20.7556 31.8026C21.0192 31.3766 21.3801 31.0406 21.8384 30.7945C22.2959 30.5469 22.7977 30.4231 23.3423 30.4231C23.8884 30.4231 24.3902 30.5469 24.8461 30.7945C25.3036 31.0406 25.6646 31.3766 25.9289 31.8026C26.1949 32.227 26.3278 32.6913 26.3278 33.1938C26.3278 33.6971 26.1949 34.1621 25.9289 34.588C25.6646 35.0125 25.3036 35.3485 24.8461 35.5961C24.3902 35.8423 23.8884 35.9646 23.3423 35.9646ZM23.3423 35.3868C23.7618 35.3868 24.1464 35.2896 24.4947 35.095C24.8446 34.9005 25.1232 34.6367 25.3305 34.3021C25.5371 33.9683 25.6408 33.5991 25.6408 33.1938C25.6408 32.7893 25.5371 32.4201 25.3305 32.0855C25.1232 31.7517 24.8446 31.4872 24.4947 31.2926C24.1464 31.0981 23.7618 31.0008 23.3423 31.0008C22.9244 31.0008 22.5397 31.0981 22.1898 31.2926C21.8392 31.4872 21.5606 31.7517 21.354 32.0855C21.1466 32.4201 21.0437 32.7893 21.0437 33.1938C21.0437 33.5991 21.1466 33.9683 21.354 34.3021C21.5606 34.6367 21.8392 34.9005 22.1898 35.095C22.5397 35.2896 22.9244 35.3868 23.3423 35.3868Z" fill="white"/>
<path d="M31.8815 34.7502V30.4998H32.5273V35.888H32.1126L28.212 31.6405V35.888H27.5662V30.4998H27.9809L31.8815 34.7502Z" fill="white"/>
<path d="M36.8253 30.4998V31.0775H34.7579V32.8107H36.743V33.3855H34.7579V35.888H34.0962V30.4998H36.8253Z" fill="white"/>
<path d="M40.6755 35.9646C40.131 35.9646 39.6291 35.8423 39.1717 35.5961C38.7134 35.3485 38.3524 35.0125 38.0889 34.588C37.8245 34.1621 37.6931 33.6971 37.6931 33.1938C37.6931 32.6913 37.8245 32.227 38.0889 31.8026C38.3524 31.3766 38.7134 31.0406 39.1717 30.7945C39.6291 30.5469 40.131 30.4231 40.6755 30.4231C41.2217 30.4231 41.7235 30.5469 42.1794 30.7945C42.6369 31.0406 42.9978 31.3766 43.2622 31.8026C43.5281 32.227 43.6611 32.6913 43.6611 33.1938C43.6611 33.6971 43.5281 34.1621 43.2622 34.588C42.9978 35.0125 42.6369 35.3485 42.1794 35.5961C41.7235 35.8423 41.2217 35.9646 40.6755 35.9646ZM40.6755 35.3868C41.095 35.3868 41.4797 35.2896 41.828 35.095C42.1778 34.9005 42.4564 34.6367 42.6638 34.3021C42.8704 33.9683 42.9741 33.5991 42.9741 33.1938C42.9741 32.7893 42.8704 32.4201 42.6638 32.0855C42.4564 31.7517 42.1778 31.4872 41.828 31.2926C41.4797 31.0981 41.095 31.0008 40.6755 31.0008C40.2576 31.0008 39.8729 31.0981 39.5231 31.2926C39.1724 31.4872 38.8938 31.7517 38.6873 32.0855C38.4799 32.4201 38.377 32.7893 38.377 33.1938C38.377 33.5991 38.4799 33.9683 38.6873 34.3021C38.8938 34.6367 39.1724 34.9005 39.5231 35.095C39.8729 35.2896 40.2576 35.3868 40.6755 35.3868Z" fill="white"/>
<path d="M48.2904 35.888L46.2388 33.58H45.5612V35.888H44.8995V30.4998H46.5934C46.9622 30.4998 47.2883 30.5668 47.5717 30.7002C47.8566 30.8343 48.0767 31.0178 48.2334 31.2514C48.3917 31.4857 48.4708 31.7488 48.4708 32.0413C48.4708 32.4245 48.3394 32.7539 48.0782 33.0288C47.8163 33.3044 47.4648 33.4768 47.0239 33.5476L49.1167 35.888H48.2904ZM45.5612 31.0775V33.0023H46.5934C46.9583 33.0023 47.2472 32.9153 47.4609 32.7399C47.6762 32.5653 47.7838 32.3324 47.7838 32.0413C47.7838 31.7488 47.6762 31.5152 47.4609 31.3398C47.2472 31.1652 46.9583 31.0775 46.5934 31.0775H45.5612Z" fill="white"/>
<path d="M51.512 35.888H50.8503V31.0775H49.3623V30.4998H53.0001V31.0775H51.512V35.888Z" fill="white"/>
<path d="M15.3499 40.3389C15.5984 40.3389 15.8184 40.3846 16.0084 40.4745C16.1999 40.5629 16.3487 40.6859 16.4548 40.8429C16.5601 41.0006 16.6131 41.1775 16.6131 41.3735C16.6131 41.5724 16.5601 41.75 16.4548 41.907C16.3487 42.0647 16.1999 42.1885 16.0084 42.2784C15.8184 42.3668 15.5984 42.411 15.3499 42.411H14.6533V43.9644H14.2101V40.3389H15.3499ZM15.3499 42.0219C15.5944 42.0219 15.7884 41.9645 15.9324 41.848C16.078 41.7301 16.1509 41.5724 16.1509 41.3735C16.1509 41.1775 16.078 41.0212 15.9324 40.9048C15.7884 40.7869 15.5944 40.7279 15.3499 40.7279H14.6533V42.0219H15.3499Z" fill="white"/>
<path d="M19.615 43.9644L18.2378 42.411H17.7787V43.9644H17.3354V40.3389H18.4752C18.7238 40.3389 18.9438 40.3846 19.1338 40.4745C19.3253 40.5629 19.4741 40.6859 19.5802 40.8429C19.6854 41.0006 19.7385 41.1775 19.7385 41.3735C19.7385 41.6329 19.6498 41.8554 19.4725 42.0396C19.2968 42.2246 19.0609 42.3418 18.7633 42.3904L20.1722 43.9644H19.615ZM17.7787 40.7279V42.0219H18.4752C18.7198 42.0219 18.9137 41.9645 19.0578 41.848C19.2034 41.7301 19.2762 41.5724 19.2762 41.3735C19.2762 41.1775 19.2034 41.0212 19.0578 40.9048C18.9137 40.7869 18.7198 40.7279 18.4752 40.7279H17.7787Z" fill="white"/>
<path d="M21.171 42.2813V43.5753H22.8427V43.9644H20.7278V40.3389H22.7857V40.7279H21.171V41.8923H22.7287V42.2813H21.171Z" fill="white"/>
<path d="M27.4287 40.3389L27.9036 43.9644H27.4572L27.1248 41.2909L25.8457 43.9644H25.6209L24.3323 41.2762L23.9967 43.9644H23.563L24.0379 40.3389H24.3482L25.7381 43.2452L27.1279 40.3389H27.4287Z" fill="white"/>
<path d="M29.2632 43.9644H28.8199V40.3389H29.2632V43.9644Z" fill="white"/>
<path d="M31.751 44.0175C31.4614 44.0175 31.2065 43.96 30.9849 43.8436C30.7648 43.7279 30.5939 43.565 30.472 43.3543C30.3517 43.142 30.2915 42.9003 30.2915 42.6291V40.3389H30.7379V42.6291C30.7379 42.9298 30.8281 43.1715 31.0102 43.3543C31.1915 43.537 31.4384 43.6284 31.751 43.6284C32.0613 43.6284 32.3067 43.537 32.4887 43.3543C32.67 43.1715 32.761 42.9298 32.761 42.6291V40.3389H33.2074V42.6291C33.2074 42.9003 33.1473 43.142 33.027 43.3543C32.9067 43.565 32.7357 43.7279 32.5141 43.8436C32.294 43.96 32.0399 44.0175 31.751 44.0175Z" fill="white"/>
<path d="M37.906 40.3389L38.3809 43.9644H37.9345L37.6021 41.2909L36.323 43.9644H36.0982L34.8096 41.2762L34.474 43.9644H34.0403L34.5152 40.3389H34.8255L36.2154 43.2452L37.6052 40.3389H37.906Z" fill="white"/>
</svg>
