<svg width="249" height="187" viewBox="0 0 249 187" fill="none" xmlns="http://www.w3.org/2000/svg">
<path d="M25.3971 80.1918C25.3971 80.1918 47.8428 46.937 92.7342 43.4931V31.4316C43.0274 35.4209 0 77.6517 0 77.6517C0 77.6517 24.3874 148.338 92.7342 154.82V141.98C42.5614 135.653 25.3971 80.1918 25.3971 80.1918ZM92.7342 116.485V128.22C54.8328 121.441 44.3012 81.906 44.3012 81.906C44.3012 81.906 62.4908 61.6788 92.7342 58.3908V71.2937H92.6721C76.8125 69.377 64.4014 84.2279 64.4014 84.2279C64.4014 84.2279 71.3603 109.27 92.7342 116.485ZM93.2002 0L92.7342 31.4316C94.1925 31.3137 95.6529 31.2254 97.1147 31.1667C153.61 29.2499 190.424 77.6517 190.424 77.6517C190.424 77.6517 148.142 129.233 104.105 129.233C100.066 129.212 96.2758 128.874 92.7342 128.22V141.98C95.7581 142.385 98.9165 142.593 102.21 142.603C143.187 142.603 172.824 121.597 201.53 96.7413C206.299 100.575 225.778 109.863 229.785 113.945C202.493 136.853 138.884 155.35 102.831 155.35C99.459 155.331 96.0898 155.154 92.7342 154.82V187H248.534L249 0H93.2002ZM92.7342 58.3908V43.4931C94.1923 43.3807 95.6529 43.3028 97.1147 43.2593C137.75 41.9815 164.405 78.2907 164.405 78.2907C164.405 78.2907 135.606 118.402 104.742 118.402C100.299 118.402 96.3224 117.685 92.7342 116.485V71.2937C108.547 73.2105 111.732 80.2074 121.238 96.118L142.394 78.2283C142.394 78.2283 126.954 57.9077 100.92 57.9077C98.1851 57.924 95.4526 58.0852 92.7342 58.3908Z" fill="white"/>
</svg>
