<svg width="29" height="29" viewBox="0 0 29 29" fill="none" xmlns="http://www.w3.org/2000/svg">
<path d="M22.5157 22.0883C21.9586 22.0895 21.4068 21.9804 20.8921 21.7673C20.3774 21.5542 19.91 21.2413 19.5168 20.8467L15.1856 16.5154C15.0322 16.3697 14.8288 16.2885 14.6174 16.2885C14.4059 16.2885 14.2025 16.3697 14.0491 16.5154L9.70138 20.8632C9.30835 21.258 8.84096 21.571 8.32623 21.7841C7.81149 21.9973 7.25962 22.1062 6.70251 22.1048H5.84863L11.3349 27.591C13.0468 29.3029 15.8249 29.3029 17.5368 27.591L23.0375 22.0883H22.5157ZM6.70251 6.76803C7.83688 6.76803 8.90113 7.2094 9.70138 8.00965L14.0491 12.3574C14.1238 12.4322 14.2126 12.4916 14.3103 12.5321C14.4079 12.5726 14.5126 12.5935 14.6184 12.5935C14.7241 12.5935 14.8288 12.5726 14.9265 12.5321C15.0242 12.4916 15.1129 12.4322 15.1876 12.3574L19.5189 8.02615C19.9117 7.63156 20.3787 7.31867 20.8931 7.10556C21.4075 6.89245 21.9589 6.78334 22.5157 6.78453H23.0375L17.5368 1.28384C16.7142 0.461781 15.5988 0 14.4359 0C13.2729 0 12.1575 0.461781 11.3349 1.28384L5.84863 6.77009L6.70251 6.76803Z" fill="#A8A8A8"/>
<path d="M27.589 11.3344L24.2643 8.00965C24.1896 8.04029 24.1098 8.0564 24.0292 8.05708H22.5173C21.7357 8.05708 20.9705 8.37471 20.4198 8.92746L16.0885 13.2587C15.8959 13.4523 15.6669 13.606 15.4147 13.7108C15.1625 13.8157 14.8921 13.8697 14.619 13.8697C14.3459 13.8697 14.0755 13.8157 13.8233 13.7108C13.5711 13.606 13.3421 13.4523 13.1495 13.2587L8.80172 8.9089C8.24391 8.35338 7.48933 8.04058 6.70209 8.03852H4.84584C4.76889 8.03791 4.6927 8.02323 4.62103 7.99521L1.28391 11.3344C-0.427969 13.0463 -0.427969 15.8245 1.28391 17.5384L4.62103 20.8755C4.69191 20.847 4.76739 20.8316 4.84378 20.8301H6.70209C7.48584 20.8301 8.24897 20.5146 8.80172 19.9618L13.1474 15.612C13.5439 15.2345 14.0705 15.0239 14.618 15.0239C15.1655 15.0239 15.692 15.2345 16.0885 15.612L20.4198 19.9433C20.9705 20.496 21.7357 20.8116 22.5173 20.8116H24.0292C24.1117 20.8116 24.1921 20.8322 24.2643 20.8611L27.589 17.5363C29.3009 15.8245 29.3009 13.0463 27.589 11.3344Z" fill="#A8A8A8"/>
</svg>
