<svg width="36" height="36" viewBox="0 0 36 36" fill="none" xmlns="http://www.w3.org/2000/svg">
<path d="M30.7406 5.23361C29.083 3.56748 27.1087 2.24662 24.9329 1.34808C22.7571 0.449542 20.4234 -0.00868682 18.0678 0.000124706C8.19764 0.000124706 0.153692 8.0056 0.144651 17.8336C0.144651 20.9813 0.971873 24.0435 2.53365 26.7548L0 36L9.50176 33.5205C12.1292 34.9475 15.0748 35.6942 18.0678 35.6917H18.0768C27.9493 35.6917 35.991 27.6863 36 17.8493C36.002 15.505 35.5381 13.1834 34.6351 11.0182C33.7321 8.85305 32.41 6.88712 30.7406 5.23361ZM18.0678 32.6723C15.3989 32.6702 12.7795 31.9553 10.4827 30.6023L9.94023 30.2783L4.30336 31.7498L5.80864 26.2755L5.45605 25.7108C3.9639 23.349 3.17474 20.6146 3.18006 17.8246C3.18006 9.66609 9.86338 3.01061 18.0768 3.01061C20.0336 3.00712 21.9716 3.38923 23.7793 4.13492C25.587 4.8806 27.2285 5.97511 28.6092 7.35535C29.9945 8.73043 31.0927 10.3648 31.8406 12.1643C32.5885 13.9638 32.9712 15.8929 32.9668 17.8403C32.9578 26.028 26.2745 32.6723 18.0678 32.6723ZM26.2383 21.5708C25.7931 21.348 23.5939 20.2703 23.1803 20.1173C22.769 19.9711 22.4684 19.8946 22.1745 20.3401C21.8739 20.7833 21.0151 21.7935 20.7574 22.0838C20.4997 22.383 20.233 22.4168 19.7855 22.1963C19.3403 21.9713 17.896 21.5033 16.1873 19.9801C14.8538 18.7988 13.9611 17.3363 13.6944 16.8931C13.4367 16.4476 13.6695 16.2091 13.8933 15.9863C14.0899 15.7883 14.3385 15.4643 14.5623 15.2078C14.7883 14.9513 14.8629 14.7623 15.0098 14.4653C15.1567 14.1638 15.0866 13.9073 14.9759 13.6846C14.8629 13.4618 13.9701 11.2636 13.5927 10.3771C13.231 9.50184 12.8626 9.62334 12.5869 9.61209C12.3292 9.59634 12.0286 9.59634 11.728 9.59634C11.501 9.60209 11.2777 9.65442 11.072 9.75005C10.8662 9.84567 10.6825 9.98254 10.5324 10.1521C10.121 10.5976 8.97062 11.6753 8.97062 13.8736C8.97062 16.0718 10.5753 18.1846 10.8014 18.4838C11.0228 18.7831 13.952 23.2808 18.4475 25.2158C19.5098 25.677 20.3461 25.9493 20.9992 26.1563C22.0728 26.4983 23.0424 26.4465 23.8154 26.3363C24.6743 26.2058 26.4621 25.2563 26.8395 24.2145C27.2102 23.1705 27.2102 22.2795 27.0972 22.0928C26.9864 21.9038 26.6858 21.7935 26.2383 21.5708Z" fill="#EDEDED"/>
</svg>
