<svg width="48" height="35" viewBox="0 0 48 35" fill="none" xmlns="http://www.w3.org/2000/svg">
<path d="M24.1545 0H24.4215C26.8877 0.00934247 39.3835 0.102768 42.7527 1.04324C43.7712 1.33027 44.6993 1.88974 45.4443 2.66574C46.1893 3.44175 46.725 4.4071 46.9979 5.46534C47.301 6.64872 47.514 8.21514 47.658 9.83139L47.688 10.1553L47.754 10.9649L47.778 11.2888C47.973 14.1352 47.997 16.8009 48 17.3832V17.6168C47.997 18.2209 47.97 21.0673 47.754 24.0319L47.73 24.3589L47.703 24.6828C47.553 26.4641 47.331 28.2329 46.9979 29.5347C46.725 30.5929 46.1893 31.5583 45.4443 32.3343C44.6993 33.1103 43.7712 33.6697 42.7527 33.9568C39.2725 34.9284 26.0446 34.9969 24.2115 35H23.7855C22.8584 35 19.0242 34.9813 15.0039 34.8381L14.4939 34.8194L14.2329 34.8069L13.7199 34.7851L13.2068 34.7633C9.87662 34.6107 6.70542 34.3647 5.24433 33.9536C4.22615 33.6669 3.29825 33.1079 2.55331 32.3325C1.80837 31.557 1.27245 30.5923 0.999062 29.5347C0.666042 28.2361 0.444028 26.4641 0.294018 24.6828L0.270017 24.3558L0.246015 24.0319C0.0970963 21.9218 0.0150469 19.8072 0 17.6915L0 17.3085C0.00600038 16.6389 0.0300019 14.3251 0.192012 11.7715L0.213013 11.4508L0.222014 11.2888L0.246015 10.9649L0.31202 10.1553L0.342021 9.83139C0.48603 8.21514 0.699044 6.64561 1.00206 5.46534C1.27499 4.4071 1.81071 3.44175 2.55568 2.66574C3.30065 1.88974 4.22879 1.33027 5.24733 1.04324C6.70842 0.638402 9.87962 0.389269 13.2098 0.233561L13.7199 0.211762L14.2359 0.193078L14.4939 0.183736L15.0069 0.161937C17.8622 0.0666542 20.7187 0.0137078 23.5755 0.0031143L24.1545 0ZM19.2012 9.99644V25.0004L31.673 17.5016L19.2012 9.99644Z" fill="#EDEDED"/>
</svg>
